<?xml version="1.0" encoding="UTF-8"?>
<svg width="697px" height="118px" viewBox="0 0 697 118" version="1.1" xmlns="http://www.w3.org/2000/svg" xmlns:xlink="http://www.w3.org/1999/xlink">
    <title>title</title>
    <g id="Page-1" stroke="none" stroke-width="1" fill="none" fill-rule="evenodd">
        <g id="Group" transform="translate(2.000000, 1.544000)" fill="#000000" fill-rule="nonzero" stroke="#000000" stroke-width="2">
            <g id="title">
                <path d="M42.912,114.192 C53.136,114.192 62.64,111.312 69.696,105.84 C73.584,102.816 76.608,99.216 78.768,95.04 C81.072,90.72 82.224,85.68 82.224,80.352 C82.224,70.56 78.768,63.072 71.856,57.312 C65.952,52.56 58.176,49.536 49.968,46.224 C49.104,45.936 48.24,45.504 47.232,45.216 L47.232,45.216 C41.472,42.912 36,40.896 32.544,38.448 C30.096,36.72 28.512,34.992 28.656,31.68 C28.656,24.336 35.856,21.6 41.904,21.6 C48.384,21.6 56.16,25.056 63.216,30.816 L67.248,34.128 L81.072,16.272 L77.328,13.104 C66.672,4.608 54.432,0 41.904,0 C32.112,0 23.04,3.312 16.272,9.072 C9.36,15.12 5.616,23.328 5.616,32.112 C5.616,37.296 6.624,41.904 8.784,45.936 C10.656,49.68 13.392,52.848 16.992,55.872 C23.328,60.768 31.248,63.936 39.312,66.96 C39.888,67.248 40.464,67.392 40.896,67.536 C46.8,69.84 51.984,71.712 55.152,74.16 C57.888,76.176 59.04,78.336 59.04,81.792 C59.04,85.104 57.744,87.552 55.296,89.424 C52.416,91.44 48.096,92.448 43.056,92.448 C38.736,92.448 34.128,91.44 30.096,89.568 C25.632,87.408 21.744,84.384 18.72,80.64 L14.832,75.744 L0,93.6 L3.024,96.768 C13.536,108 27.648,114.192 42.912,114.192 Z" id="path263547"></path>
                <path d="M138.87524,114.336 C144.34724,114.336 149.81924,113.184 154.85924,111.168 C159.75524,109.008 164.21924,106.128 167.96324,102.384 C171.70724,98.496 174.58724,94.176 176.74724,89.28 C178.90724,84.24 179.91524,78.768 179.91524,73.296 C179.91524,67.68 178.90724,62.352 176.74724,57.312 C174.58724,52.416 171.70724,47.952 167.96324,44.208 C164.07524,40.464 159.75524,37.584 154.85924,35.424 C149.81924,33.264 144.34724,32.256 138.87524,32.256 C133.40324,32.256 127.93124,33.264 122.89124,35.424 C117.99524,37.584 113.67524,40.464 109.78724,44.208 C106.04324,48.096 103.16324,52.416 101.00324,57.312 C98.98724,62.352 97.83524,67.68 97.83524,73.296 C97.83524,78.768 98.98724,84.24 101.00324,89.28 C103.16324,94.176 106.04324,98.496 109.78724,102.384 C113.67524,106.128 117.99524,109.008 122.89124,111.168 C127.93124,113.184 133.40324,114.336 138.87524,114.336 Z M138.87524,53.856 C149.53124,53.856 158.31524,62.64 158.31524,73.296 C158.31524,83.952 149.53124,92.736 138.87524,92.736 C128.21924,92.736 119.43524,83.952 119.43524,73.296 C119.43524,62.64 128.21924,53.856 138.87524,53.856 Z" id="path263549"></path>
                <path d="M236.37524,114.48 C249.76724,114.48 262.43924,107.856 270.21524,96.624 L252.35924,84.384 C248.75924,89.712 242.71124,92.88 236.37524,92.88 C225.57524,92.88 216.93524,84.096 216.93524,73.44 C216.93524,62.64 225.57524,54 236.37524,54 C242.56724,54 248.61524,57.024 252.21524,62.208 L269.92724,49.824 C266.18324,44.496 261.14324,40.176 255.52724,37.152 C249.62324,33.984 242.99924,32.4 236.37524,32.4 C230.75924,32.4 225.43124,33.408 220.39124,35.568 C215.49524,37.728 211.03124,40.608 207.28724,44.352 C203.54324,48.24 200.51924,52.56 198.50324,57.456 C196.34324,62.496 195.33524,67.968 195.33524,73.44 C195.33524,78.912 196.34324,84.384 198.50324,89.424 C200.51924,94.32 203.54324,98.64 207.28724,102.528 C211.03124,106.272 215.49524,109.152 220.39124,111.312 C225.43124,113.328 230.75924,114.48 236.37524,114.48 Z" id="path263551"></path>
                <polygon id="path263553" points="287.613 113.328 309.357 113.328 309.357 30.24 287.613 37.44"></polygon>
                <path d="M388.62524,32.256 L388.76924,36.864 C383.00924,33.984 376.67324,32.4 370.19324,32.4 C364.72124,32.4 359.24924,33.408 354.20924,35.568 C349.31324,37.728 344.99324,40.608 341.10524,44.352 C337.36124,48.096 334.48124,52.56 332.32124,57.456 C330.30524,62.496 329.15324,67.968 329.15324,73.44 C329.15324,78.912 330.30524,84.384 332.32124,89.424 C334.48124,94.32 337.36124,98.64 341.10524,102.528 C344.99324,106.272 349.31324,109.152 354.20924,111.312 C359.24924,113.328 364.72124,114.48 370.19324,114.48 C376.67324,114.48 383.00924,112.896 388.76924,110.016 L388.62524,113.328 L410.22524,113.328 L410.22524,32.256 L388.62524,32.256 Z M379.98524,90.144 C377.10524,91.872 373.64924,92.88 370.19324,92.88 C359.53724,92.88 350.75324,84.096 350.75324,73.44 C350.75324,62.784 359.53724,54 370.19324,54 C373.93724,54 377.68124,55.008 380.70524,57.168 C383.87324,59.04 386.32124,61.92 387.76124,65.232 C389.05724,67.824 389.63324,70.56 389.63324,73.44 C389.63324,76.896 388.76924,80.208 387.04124,83.232 C385.31324,86.112 383.00924,88.56 379.98524,90.144 Z" id="path263555"></path>
                <polygon id="path263557" points="434.5395 113.328 507.6915 113.328 507.6915 91.872 457.1475 91.872 457.1475 1.008 434.5395 8.208"></polygon>
                <polygon id="path263559" points="525.83174 113.328 547.57574 113.328 547.57574 30.24 525.83174 37.44"></polygon>
                <path d="M602.076,114.192 C616.62,114.192 628.428,102.384 628.428,87.84 C628.428,73.296 616.62,61.488 602.076,61.488 L596.028,61.488 C593.868,61.488 592.284,59.76 592.284,57.744 C592.284,55.584 593.868,53.856 596.028,53.856 L626.124,53.856 L626.124,31.248 L596.028,31.248 C581.484,31.248 569.676,43.2 569.676,57.744 C569.676,72.288 581.484,84.096 596.028,84.096 L602.076,84.096 C604.092,84.096 605.82,85.824 605.82,87.84 C605.82,90 604.092,91.584 602.076,91.584 L568.38,91.584 L568.38,114.192 L602.076,114.192 Z" id="path263561"></path>
                <path d="M693.204,53.28 L693.204,33.12 L670.308,33.12 L670.308,7.344 L648.708,14.544 L648.708,70.416 C648.708,76.464 649.86,82.224 652.164,87.696 C654.324,93.024 657.636,97.776 661.668,101.808 C665.7,105.984 670.452,109.152 675.78,111.456 C681.252,113.76 687.156,114.912 693.204,114.912 L693.204,93.312 C680.532,93.312 670.308,83.088 670.308,70.416 L670.308,53.28 L693.204,53.28 Z" id="path263563"></path>
            </g>
        </g>
    </g>
</svg>